ffmpeg started on 2026-04-01 at 11:30:31
Report written to "D:\Convert\FFMetrics\reports\psnr_report-6.txt"
Log level: 32
Command line:
ffmpeg -hide_banner -nostdin -r 24000/1001 -i "F:\\Convert\\files\\[DC] Make Heroine ga Oosugiru - 07_Telegram_HEVC(270).mkv" -r 24000/1001 -i "F:\\Convert\\files\\[DC] Make Heroine ga Oosugiru - 07_Telegram.mp4" -lavfi "[0:v]settb=AVTB,setpts=PTS-STARTPTS,format=pix_fmts=yuv420p10le,fps=24000/1001,scale=1920:1080:flags=lanczos:param0=3:out_range=limited:out_color_matrix=bt709:out_chroma_loc=left,setsar=1/1,setdar=(1920/1080)*(1/1),colorspace=format=yuv420p10:range=tv:primaries=bt709:trc=bt709:space=bt709:fast=0[main];[1:v]settb=AVTB,setpts=PTS-STARTPTS,format=pix_fmts=yuv420p,fps=24000/1001,scale=1920:1080:flags=lanczos:param0=3:out_range=limited:out_color_matrix=bt709:out_chroma_loc=left,setsar=1/1,setdar=(1920/1080)*(1/1),colorspace=format=yuv420p:range=tv:primaries=bt709:trc=bt709:space=bt709:fast=0[ref];[main][ref]psnr=eof_action=endall:stats_file='D\\:/Convert/FFMetrics/logs/psnr_logfile-6.txt'" -f null -
Input #0, matroska,webm, from 'F:\Convert\files\[DC] Make Heroine ga Oosugiru - 07_Telegram_HEVC(270).mkv':
  Metadata:
    COMPATIBLE_BRANDS: isomiso2avc1mp41
    MAJOR_BRAND     : isom
    MINOR_VERSION   : 512
    ENCODER         : Lavf61.7.100
  Duration: 00:24:06.79, start: -0.021000, bitrate: 970 kb/s
  Stream #0:0: Video: hevc (Main 10), yuv420p10le(tv, bt709, progressive), 1920x1080 [SAR 1:1 DAR 16:9], 23.98 fps, 23.98 tbr, 1k tbn (default)
      Metadata:
        HANDLER_NAME    : VideoHandler
        VENDOR_ID       : [0][0][0][0]
        ENCODER         : Lavc61.19.100 libx265
        BPS             : 773347
        DURATION        : 00:24:06.569708333
        NUMBER_OF_FRAMES: 34683
        NUMBER_OF_BYTES : 139837652
        _STATISTICS_WRITING_APP: mkvpropedit v94.0 ('Initiate') 64-bit
        _STATISTICS_WRITING_DATE_UTC: 2026-03-30 12:06:18
        _STATISTICS_TAGS: BPS DURATION NUMBER_OF_FRAMES NUMBER_OF_BYTES
  Stream #0:1: Audio: aac (LC), 48000 Hz, stereo, fltp (default)
      Metadata:
        HANDLER_NAME    : SoundHandler
        VENDOR_ID       : [0][0][0][0]
        ENCODER         : Lavc61.19.100 aac
        BPS             : 193194
        DURATION        : 00:24:06.784000000
        NUMBER_OF_FRAMES: 67819
        NUMBER_OF_BYTES : 34938755
        _STATISTICS_WRITING_APP: mkvpropedit v94.0 ('Initiate') 64-bit
        _STATISTICS_WRITING_DATE_UTC: 2026-03-30 12:06:18
        _STATISTICS_TAGS: BPS DURATION NUMBER_OF_FRAMES NUMBER_OF_BYTES
Input #1, mov,mp4,m4a,3gp,3g2,mj2, from 'F:\Convert\files\[DC] Make Heroine ga Oosugiru - 07_Telegram.mp4':
  Metadata:
    major_brand     : isom
    minor_version   : 512
    compatible_brands: isomiso2avc1mp41
    encoder         : Lavf60.16.100
  Duration: 00:24:06.74, start: 0.000000, bitrate: 3764 kb/s
  Stream #1:0[0x1](und): Video: h264 (High) (avc1 / 0x31637661), yuv420p(tv, bt709, progressive), 1920x1080 [SAR 1:1 DAR 16:9], 3616 kb/s, 23.98 fps, 23.98 tbr, 24k tbn (default)
      Metadata:
        handler_name    : VideoHandler
        vendor_id       : [0][0][0][0]
        encoder         : Lavc60.31.102 h264_qsv
  Stream #1:1[0x2](und): Audio: aac (HE-AACv2) (mp4a / 0x6134706D), 48000 Hz, stereo, fltp, 144 kb/s (default)
      Metadata:
        handler_name    : SoundHandler
        vendor_id       : [0][0][0][0]
Stream mapping:
  Stream #0:0 (hevc) -> settb:default
  Stream #1:0 (h264) -> settb:default
  psnr:default -> Stream #0:0 (wrapped_avframe)
  Stream #0:1 -> #0:1 (aac (native) -> pcm_s16le (native))
Output #0, null, to 'pipe:':
  Metadata:
    COMPATIBLE_BRANDS: isomiso2avc1mp41
    MAJOR_BRAND     : isom
    MINOR_VERSION   : 512
    encoder         : Lavf61.7.100
  Stream #0:0: Video: wrapped_avframe, yuv420p10le(tv, bt709, progressive), 1920x1080 [SAR 1:1 DAR 16:9], q=2-31, 200 kb/s, 23.98 fps, 23.98 tbn
      Metadata:
        encoder         : Lavc61.19.100 wrapped_avframe
  Stream #0:1: Audio: pcm_s16le, 48000 Hz, stereo, s16, 1536 kb/s (default)
      Metadata:
        HANDLER_NAME    : SoundHandler
        VENDOR_ID       : [0][0][0][0]
        _STATISTICS_TAGS: BPS DURATION NUMBER_OF_FRAMES NUMBER_OF_BYTES
        BPS             : 193194
        DURATION        : 00:24:06.784000000
        NUMBER_OF_FRAMES: 67819
        NUMBER_OF_BYTES : 34938755
        _STATISTICS_WRITING_APP: mkvpropedit v94.0 ('Initiate') 64-bit
        _STATISTICS_WRITING_DATE_UTC: 2026-03-30 12:06:18
        encoder         : Lavc61.19.100 pcm_s16le
frame=  126 fps=0.0 q=-0.0 size=N/A time=00:00:05.25 bitrate=N/A speed=10.4x    frame=  315 fps=309 q=-0.0 size=N/A time=00:00:13.13 bitrate=N/A speed=12.9x    frame=  517 fps=335 q=-0.0 size=N/A time=00:00:21.56 bitrate=N/A speed=  14x    frame=  710 fps=345 q=-0.0 size=N/A time=00:00:29.61 bitrate=N/A speed=14.4x    frame=  892 fps=347 q=-0.0 size=N/A time=00:00:37.20 bitrate=N/A speed=14.5x    frame= 1023 fps=332 q=-0.0 size=N/A time=00:00:42.66 bitrate=N/A speed=13.8x    frame= 1190 fps=330 q=-0.0 size=N/A time=00:00:49.63 bitrate=N/A speed=13.8x    frame= 1350 fps=328 q=-0.0 size=N/A time=00:00:56.30 bitrate=N/A speed=13.7x    frame= 1508 fps=326 q=-0.0 size=N/A time=00:01:02.89 bitrate=N/A speed=13.6x    frame= 1647 fps=320 q=-0.0 size=N/A time=00:01:08.69 bitrate=N/A speed=13.4x    frame= 1804 fps=318 q=-0.0 size=N/A time=00:01:15.24 bitrate=N/A speed=13.3x    frame= 1971 fps=319 q=-0.0 size=N/A time=00:01:22.20 bitrate=N/A speed=13.3x    frame= 2085 fps=311 q=-0.0 size=N/A time=00:01:26.96 bitrate=N/A speed=  13x    frame= 2226 fps=309 q=-0.0 size=N/A time=00:01:32.84 bitrate=N/A speed=12.9x    frame= 2381 fps=308 q=-0.0 size=N/A time=00:01:39.30 bitrate=N/A speed=12.8x    frame= 2506 fps=304 q=-0.0 size=N/A time=00:01:44.52 bitrate=N/A speed=12.7x    frame= 2657 fps=303 q=-0.0 size=N/A time=00:01:50.81 bitrate=N/A speed=12.7x    frame= 2832 fps=306 q=-0.0 size=N/A time=00:01:58.11 bitrate=N/A speed=12.7x    frame= 3005 fps=307 q=-0.0 size=N/A time=00:02:05.33 bitrate=N/A speed=12.8x    frame= 3196 fps=310 q=-0.0 size=N/A time=00:02:13.29 bitrate=N/A speed=12.9x    frame= 3388 fps=313 q=-0.0 size=N/A time=00:02:21.30 bitrate=N/A speed=13.1x    frame= 3588 fps=316 q=-0.0 size=N/A time=00:02:29.64 bitrate=N/A speed=13.2x    frame= 3793 fps=320 q=-0.0 size=N/A time=00:02:38.19 bitrate=N/A speed=13.3x    frame= 3983 fps=322 q=-0.0 size=N/A time=00:02:46.12 bitrate=N/A speed=13.4x    frame= 4185 fps=325 q=-0.0 size=N/A time=00:02:54.54 bitrate=N/A speed=13.5x    frame= 4371 fps=326 q=-0.0 size=N/A time=00:03:02.30 bitrate=N/A speed=13.6x    frame= 4571 fps=328 q=-0.0 size=N/A time=00:03:10.64 bitrate=N/A speed=13.7x    frame= 4765 fps=330 q=-0.0 size=N/A time=00:03:18.74 bitrate=N/A speed=13.8x    frame= 4962 fps=332 q=-0.0 size=N/A time=00:03:26.95 bitrate=N/A speed=13.8x    frame= 5160 fps=333 q=-0.0 size=N/A time=00:03:35.21 bitrate=N/A speed=13.9x    frame= 5356 fps=335 q=-0.0 size=N/A time=00:03:43.38 bitrate=N/A speed=  14x    frame= 5546 fps=336 q=-0.0 size=N/A time=00:03:51.31 bitrate=N/A speed=  14x    frame= 5747 fps=338 q=-0.0 size=N/A time=00:03:59.69 bitrate=N/A speed=14.1x    frame= 5946 fps=339 q=-0.0 size=N/A time=00:04:07.99 bitrate=N/A speed=14.1x    frame= 6134 fps=340 q=-0.0 size=N/A time=00:04:15.83 bitrate=N/A speed=14.2x    frame= 6327 fps=341 q=-0.0 size=N/A time=00:04:23.88 bitrate=N/A speed=14.2x    frame= 6528 fps=342 q=-0.0 size=N/A time=00:04:32.27 bitrate=N/A speed=14.3x    frame= 6730 fps=343 q=-0.0 size=N/A time=00:04:40.69 bitrate=N/A speed=14.3x    frame= 6915 fps=344 q=-0.0 size=N/A time=00:04:48.41 bitrate=N/A speed=14.3x    frame= 7091 fps=344 q=-0.0 size=N/A time=00:04:55.75 bitrate=N/A speed=14.3x    frame= 7261 fps=343 q=-0.0 size=N/A time=00:05:02.84 bitrate=N/A speed=14.3x    frame= 7454 fps=344 q=-0.0 size=N/A time=00:05:10.89 bitrate=N/A speed=14.3x    frame= 7623 fps=344 q=-0.0 size=N/A time=00:05:17.94 bitrate=N/A speed=14.3x    frame= 7798 fps=344 q=-0.0 size=N/A time=00:05:25.24 bitrate=N/A speed=14.3x    frame= 7981 fps=344 q=-0.0 size=N/A time=00:05:32.87 bitrate=N/A speed=14.3x    frame= 8171 fps=344 q=-0.0 size=N/A time=00:05:40.79 bitrate=N/A speed=14.4x    frame= 8358 fps=345 q=-0.0 size=N/A time=00:05:48.59 bitrate=N/A speed=14.4x    frame= 8551 fps=345 q=-0.0 size=N/A time=00:05:56.64 bitrate=N/A speed=14.4x    frame= 8741 fps=346 q=-0.0 size=N/A time=00:06:04.57 bitrate=N/A speed=14.4x    frame= 8930 fps=346 q=-0.0 size=N/A time=00:06:12.45 bitrate=N/A speed=14.4x    frame= 9119 fps=346 q=-0.0 size=N/A time=00:06:20.33 bitrate=N/A speed=14.5x    frame= 9298 fps=347 q=-0.0 size=N/A time=00:06:27.80 bitrate=N/A speed=14.5x    frame= 9485 fps=347 q=-0.0 size=N/A time=00:06:35.60 bitrate=N/A speed=14.5x    frame= 9678 fps=347 q=-0.0 size=N/A time=00:06:43.65 bitrate=N/A speed=14.5x    frame= 9864 fps=348 q=-0.0 size=N/A time=00:06:51.41 bitrate=N/A speed=14.5x    frame=10037 fps=347 q=-0.0 size=N/A time=00:06:58.62 bitrate=N/A speed=14.5x    frame=10206 fps=347 q=-0.0 size=N/A time=00:07:05.67 bitrate=N/A speed=14.5x    frame=10398 fps=347 q=-0.0 size=N/A time=00:07:13.68 bitrate=N/A speed=14.5x    frame=10581 fps=348 q=-0.0 size=N/A time=00:07:21.31 bitrate=N/A speed=14.5x    frame=10762 fps=348 q=-0.0 size=N/A time=00:07:28.86 bitrate=N/A speed=14.5x    frame=10944 fps=348 q=-0.0 size=N/A time=00:07:36.45 bitrate=N/A speed=14.5x    frame=11128 fps=348 q=-0.0 size=N/A time=00:07:44.13 bitrate=N/A speed=14.5x    frame=11309 fps=348 q=-0.0 size=N/A time=00:07:51.67 bitrate=N/A speed=14.5x    frame=11504 fps=348 q=-0.0 size=N/A time=00:07:59.81 bitrate=N/A speed=14.5x    frame=11692 fps=349 q=-0.0 size=N/A time=00:08:07.65 bitrate=N/A speed=14.5x    frame=11890 fps=349 q=-0.0 size=N/A time=00:08:15.91 bitrate=N/A speed=14.6x    frame=12082 fps=349 q=-0.0 size=N/A time=00:08:23.92 bitrate=N/A speed=14.6x    frame=12265 fps=350 q=-0.0 size=N/A time=00:08:31.55 bitrate=N/A speed=14.6x    frame=12461 fps=350 q=-0.0 size=N/A time=00:08:39.72 bitrate=N/A speed=14.6x    frame=12653 fps=350 q=-0.0 size=N/A time=00:08:47.73 bitrate=N/A speed=14.6x    frame=12845 fps=351 q=-0.0 size=N/A time=00:08:55.74 bitrate=N/A speed=14.6x    frame=13035 fps=351 q=-0.0 size=N/A time=00:09:03.66 bitrate=N/A speed=14.6x    frame=13221 fps=351 q=-0.0 size=N/A time=00:09:11.42 bitrate=N/A speed=14.6x    frame=13402 fps=351 q=-0.0 size=N/A time=00:09:18.97 bitrate=N/A speed=14.6x    frame=13581 fps=351 q=-0.0 size=N/A time=00:09:26.44 bitrate=N/A speed=14.6x    frame=13767 fps=351 q=-0.0 size=N/A time=00:09:34.19 bitrate=N/A speed=14.6x    frame=13939 fps=351 q=-0.0 size=N/A time=00:09:41.37 bitrate=N/A speed=14.6x    frame=14107 fps=351 q=-0.0 size=N/A time=00:09:48.37 bitrate=N/A speed=14.6x    frame=14277 fps=350 q=-0.0 size=N/A time=00:09:55.46 bitrate=N/A speed=14.6x    frame=14466 fps=351 q=-0.0 size=N/A time=00:10:03.35 bitrate=N/A speed=14.6x    frame=14628 fps=350 q=-0.0 size=N/A time=00:10:10.10 bitrate=N/A speed=14.6x    frame=14815 fps=350 q=-0.0 size=N/A time=00:10:17.90 bitrate=N/A speed=14.6x    frame=14999 fps=350 q=-0.0 size=N/A time=00:10:25.58 bitrate=N/A speed=14.6x    frame=15149 fps=350 q=-0.0 size=N/A time=00:10:31.83 bitrate=N/A speed=14.6x    frame=15315 fps=349 q=-0.0 size=N/A time=00:10:38.76 bitrate=N/A speed=14.6x    frame=15485 fps=349 q=-0.0 size=N/A time=00:10:45.85 bitrate=N/A speed=14.6x    frame=15654 fps=349 q=-0.0 size=N/A time=00:10:52.90 bitrate=N/A speed=14.5x    frame=15829 fps=349 q=-0.0 size=N/A time=00:11:00.20 bitrate=N/A speed=14.5x    frame=15982 fps=348 q=-0.0 size=N/A time=00:11:06.58 bitrate=N/A speed=14.5x    frame=16155 fps=348 q=-0.0 size=N/A time=00:11:13.79 bitrate=N/A speed=14.5x    frame=16328 fps=348 q=-0.0 size=N/A time=00:11:21.01 bitrate=N/A speed=14.5x    frame=16508 fps=348 q=-0.0 size=N/A time=00:11:28.52 bitrate=N/A speed=14.5x    frame=16666 fps=347 q=-0.0 size=N/A time=00:11:35.11 bitrate=N/A speed=14.5x    frame=16840 fps=347 q=-0.0 size=N/A time=00:11:42.36 bitrate=N/A speed=14.5x    frame=17018 fps=347 q=-0.0 size=N/A time=00:11:49.79 bitrate=N/A speed=14.5x    frame=17187 fps=347 q=-0.0 size=N/A time=00:11:56.84 bitrate=N/A speed=14.5x    frame=17366 fps=347 q=-0.0 size=N/A time=00:12:04.30 bitrate=N/A speed=14.5x    frame=17544 fps=347 q=-0.0 size=N/A time=00:12:11.73 bitrate=N/A speed=14.5x    frame=17719 fps=347 q=-0.0 size=N/A time=00:12:19.02 bitrate=N/A speed=14.5x    frame=17892 fps=347 q=-0.0 size=N/A time=00:12:26.24 bitrate=N/A speed=14.5x    frame=18066 fps=347 q=-0.0 size=N/A time=00:12:33.50 bitrate=N/A speed=14.5x    frame=18241 fps=347 q=-0.0 size=N/A time=00:12:40.80 bitrate=N/A speed=14.5x    frame=18408 fps=346 q=-0.0 size=N/A time=00:12:47.76 bitrate=N/A speed=14.5x    frame=18589 fps=346 q=-0.0 size=N/A time=00:12:55.31 bitrate=N/A speed=14.5x    frame=18768 fps=346 q=-0.0 size=N/A time=00:13:02.78 bitrate=N/A speed=14.5x    frame=18952 fps=347 q=-0.0 size=N/A time=00:13:10.45 bitrate=N/A speed=14.5x    frame=19141 fps=347 q=-0.0 size=N/A time=00:13:18.33 bitrate=N/A speed=14.5x    frame=19328 fps=347 q=-0.0 size=N/A time=00:13:26.13 bitrate=N/A speed=14.5x    frame=19509 fps=347 q=-0.0 size=N/A time=00:13:33.68 bitrate=N/A speed=14.5x    frame=19687 fps=347 q=-0.0 size=N/A time=00:13:41.11 bitrate=N/A speed=14.5x    frame=19871 fps=347 q=-0.0 size=N/A time=00:13:48.78 bitrate=N/A speed=14.5x    frame=20042 fps=347 q=-0.0 size=N/A time=00:13:55.91 bitrate=N/A speed=14.5x    frame=20221 fps=347 q=-0.0 size=N/A time=00:14:03.38 bitrate=N/A speed=14.5x    frame=20387 fps=347 q=-0.0 size=N/A time=00:14:10.30 bitrate=N/A speed=14.5x    frame=20561 fps=347 q=-0.0 size=N/A time=00:14:17.56 bitrate=N/A speed=14.5x    frame=20724 fps=346 q=-0.0 size=N/A time=00:14:24.36 bitrate=N/A speed=14.4x    frame=20910 fps=347 q=-0.0 size=N/A time=00:14:32.12 bitrate=N/A speed=14.5x    frame=21095 fps=347 q=-0.0 size=N/A time=00:14:39.83 bitrate=N/A speed=14.5x    frame=21275 fps=347 q=-0.0 size=N/A time=00:14:47.34 bitrate=N/A speed=14.5x    frame=21451 fps=347 q=-0.0 size=N/A time=00:14:54.68 bitrate=N/A speed=14.5x    frame=21640 fps=347 q=-0.0 size=N/A time=00:15:02.56 bitrate=N/A speed=14.5x    frame=21818 fps=347 q=-0.0 size=N/A time=00:15:09.99 bitrate=N/A speed=14.5x    frame=21991 fps=347 q=-0.0 size=N/A time=00:15:17.20 bitrate=N/A speed=14.5x    frame=22174 fps=347 q=-0.0 size=N/A time=00:15:24.84 bitrate=N/A speed=14.5x    frame=22336 fps=346 q=-0.0 size=N/A time=00:15:31.59 bitrate=N/A speed=14.4x    frame=22504 fps=346 q=-0.0 size=N/A time=00:15:38.60 bitrate=N/A speed=14.4x    frame=22682 fps=346 q=-0.0 size=N/A time=00:15:46.02 bitrate=N/A speed=14.4x    frame=22846 fps=346 q=-0.0 size=N/A time=00:15:52.86 bitrate=N/A speed=14.4x    frame=23014 fps=346 q=-0.0 size=N/A time=00:15:59.87 bitrate=N/A speed=14.4x    frame=23180 fps=346 q=-0.0 size=N/A time=00:16:06.79 bitrate=N/A speed=14.4x    frame=23351 fps=346 q=-0.0 size=N/A time=00:16:13.93 bitrate=N/A speed=14.4x    frame=23519 fps=345 q=-0.0 size=N/A time=00:16:20.93 bitrate=N/A speed=14.4x    frame=23695 fps=345 q=-0.0 size=N/A time=00:16:28.27 bitrate=N/A speed=14.4x    frame=23866 fps=345 q=-0.0 size=N/A time=00:16:35.41 bitrate=N/A speed=14.4x    frame=24027 fps=345 q=-0.0 size=N/A time=00:16:42.12 bitrate=N/A speed=14.4x    frame=24177 fps=345 q=-0.0 size=N/A time=00:16:48.38 bitrate=N/A speed=14.4x    frame=24340 fps=344 q=-0.0 size=N/A time=00:16:55.18 bitrate=N/A speed=14.4x    frame=24516 fps=344 q=-0.0 size=N/A time=00:17:02.52 bitrate=N/A speed=14.4x    frame=24685 fps=344 q=-0.0 size=N/A time=00:17:09.57 bitrate=N/A speed=14.4x    frame=24861 fps=344 q=-0.0 size=N/A time=00:17:16.91 bitrate=N/A speed=14.4x    frame=25026 fps=344 q=-0.0 size=N/A time=00:17:23.79 bitrate=N/A speed=14.4x    frame=25212 fps=344 q=-0.0 size=N/A time=00:17:31.55 bitrate=N/A speed=14.4x    frame=25387 fps=344 q=-0.0 size=N/A time=00:17:38.84 bitrate=N/A speed=14.4x    frame=25562 fps=344 q=-0.0 size=N/A time=00:17:46.14 bitrate=N/A speed=14.4x    frame=25725 fps=344 q=-0.0 size=N/A time=00:17:52.94 bitrate=N/A speed=14.3x    frame=25880 fps=344 q=-0.0 size=N/A time=00:17:59.41 bitrate=N/A speed=14.3x    frame=26060 fps=344 q=-0.0 size=N/A time=00:18:06.91 bitrate=N/A speed=14.3x    frame=26232 fps=344 q=-0.0 size=N/A time=00:18:14.09 bitrate=N/A speed=14.3x    frame=26407 fps=344 q=-0.0 size=N/A time=00:18:21.39 bitrate=N/A speed=14.3x    frame=26585 fps=344 q=-0.0 size=N/A time=00:18:28.81 bitrate=N/A speed=14.3x    frame=26769 fps=344 q=-0.0 size=N/A time=00:18:36.49 bitrate=N/A speed=14.3x    frame=26930 fps=343 q=-0.0 size=N/A time=00:18:43.20 bitrate=N/A speed=14.3x    frame=27087 fps=343 q=-0.0 size=N/A time=00:18:49.75 bitrate=N/A speed=14.3x    frame=27243 fps=343 q=-0.0 size=N/A time=00:18:56.26 bitrate=N/A speed=14.3x    frame=27423 fps=343 q=-0.0 size=N/A time=00:19:03.76 bitrate=N/A speed=14.3x    frame=27589 fps=343 q=-0.0 size=N/A time=00:19:10.69 bitrate=N/A speed=14.3x    frame=27757 fps=343 q=-0.0 size=N/A time=00:19:17.69 bitrate=N/A speed=14.3x    frame=27929 fps=343 q=-0.0 size=N/A time=00:19:24.87 bitrate=N/A speed=14.3x    frame=28105 fps=343 q=-0.0 size=N/A time=00:19:32.21 bitrate=N/A speed=14.3x    frame=28275 fps=343 q=-0.0 size=N/A time=00:19:39.30 bitrate=N/A speed=14.3x    frame=28449 fps=343 q=-0.0 size=N/A time=00:19:46.56 bitrate=N/A speed=14.3x    frame=28623 fps=342 q=-0.0 size=N/A time=00:19:53.81 bitrate=N/A speed=14.3x    frame=28793 fps=342 q=-0.0 size=N/A time=00:20:00.90 bitrate=N/A speed=14.3x    frame=28957 fps=342 q=-0.0 size=N/A time=00:20:07.74 bitrate=N/A speed=14.3x    frame=29118 fps=342 q=-0.0 size=N/A time=00:20:14.46 bitrate=N/A speed=14.3x    frame=29278 fps=342 q=-0.0 size=N/A time=00:20:21.13 bitrate=N/A speed=14.3x    frame=29443 fps=342 q=-0.0 size=N/A time=00:20:28.01 bitrate=N/A speed=14.3x    frame=29588 fps=341 q=-0.0 size=N/A time=00:20:34.06 bitrate=N/A speed=14.2x    frame=29735 fps=341 q=-0.0 size=N/A time=00:20:40.19 bitrate=N/A speed=14.2x    frame=29874 fps=341 q=-0.0 size=N/A time=00:20:45.99 bitrate=N/A speed=14.2x    frame=30025 fps=340 q=-0.0 size=N/A time=00:20:52.29 bitrate=N/A speed=14.2x    frame=30183 fps=340 q=-0.0 size=N/A time=00:20:58.88 bitrate=N/A speed=14.2x    frame=30350 fps=340 q=-0.0 size=N/A time=00:21:05.84 bitrate=N/A speed=14.2x    frame=30508 fps=340 q=-0.0 size=N/A time=00:21:12.43 bitrate=N/A speed=14.2x    frame=30665 fps=340 q=-0.0 size=N/A time=00:21:18.98 bitrate=N/A speed=14.2x    frame=30833 fps=340 q=-0.0 size=N/A time=00:21:25.99 bitrate=N/A speed=14.2x    frame=31010 fps=340 q=-0.0 size=N/A time=00:21:33.37 bitrate=N/A speed=14.2x    frame=31172 fps=339 q=-0.0 size=N/A time=00:21:40.13 bitrate=N/A speed=14.2x    frame=31327 fps=339 q=-0.0 size=N/A time=00:21:46.59 bitrate=N/A speed=14.1x    frame=31487 fps=339 q=-0.0 size=N/A time=00:21:53.27 bitrate=N/A speed=14.1x    frame=31658 fps=339 q=-0.0 size=N/A time=00:22:00.40 bitrate=N/A speed=14.1x    frame=31815 fps=339 q=-0.0 size=N/A time=00:22:06.95 bitrate=N/A speed=14.1x    frame=31978 fps=339 q=-0.0 size=N/A time=00:22:13.74 bitrate=N/A speed=14.1x    frame=32136 fps=339 q=-0.0 size=N/A time=00:22:20.33 bitrate=N/A speed=14.1x    frame=32285 fps=338 q=-0.0 size=N/A time=00:22:26.55 bitrate=N/A speed=14.1x    frame=32444 fps=338 q=-0.0 size=N/A time=00:22:33.18 bitrate=N/A speed=14.1x    frame=32606 fps=338 q=-0.0 size=N/A time=00:22:39.94 bitrate=N/A speed=14.1x    frame=32737 fps=338 q=-0.0 size=N/A time=00:22:45.40 bitrate=N/A speed=14.1x    frame=32881 fps=337 q=-0.0 size=N/A time=00:22:51.41 bitrate=N/A speed=14.1x    frame=33051 fps=337 q=-0.0 size=N/A time=00:22:58.50 bitrate=N/A speed=14.1x    frame=33222 fps=337 q=-0.0 size=N/A time=00:23:05.63 bitrate=N/A speed=14.1x    frame=33381 fps=337 q=-0.0 size=N/A time=00:23:12.26 bitrate=N/A speed=14.1x    frame=33520 fps=337 q=-0.0 size=N/A time=00:23:18.06 bitrate=N/A speed=  14x    frame=33650 fps=336 q=-0.0 size=N/A time=00:23:23.48 bitrate=N/A speed=  14x    frame=33776 fps=336 q=-0.0 size=N/A time=00:23:28.74 bitrate=N/A speed=  14x    frame=33883 fps=335 q=-0.0 size=N/A time=00:23:33.20 bitrate=N/A speed=  14x    frame=34032 fps=335 q=-0.0 size=N/A time=00:23:39.41 bitrate=N/A speed=  14x    frame=34180 fps=335 q=-0.0 size=N/A time=00:23:45.59 bitrate=N/A speed=  14x    frame=34312 fps=334 q=-0.0 size=N/A time=00:23:51.09 bitrate=N/A speed=13.9x    frame=34434 fps=334 q=-0.0 size=N/A time=00:23:56.18 bitrate=N/A speed=13.9x    frame=34588 fps=334 q=-0.0 size=N/A time=00:24:02.60 bitrate=N/A speed=13.9x    [Parsed_psnr_16 @ 000001e6897a4500] PSNR y:48.955215 u:50.339193 v:50.389562 average:49.376077 min:37.947151 max:inf
[out#0/null @ 000001e6fc96dec0] video:14903KiB audio:271276KiB subtitle:0KiB other streams:0KiB global headers:0KiB muxing overhead: unknown
frame=34683 fps=333 q=-0.0 Lsize=N/A time=00:24:06.57 bitrate=N/A speed=13.9x    
